<?xml version="1.0" encoding="UTF-8"?>
<svg version="1.1" xmlns="http://www.w3.org/2000/svg" width="834" height="579">
<path d="M0 0 C275.22 0 550.44 0 834 0 C834 191.07 834 382.14 834 579 C558.78 579 283.56 579 0 579 C0 387.93 0 196.86 0 0 Z " fill="#FDFDFD" transform="translate(0,0)"/>
<path d="M0 0 C5.87892967 4.11039215 9.61066805 8.57140708 11.61328125 15.52734375 C12.7093693 24.28540652 12.10651562 32.70004858 6.84375 39.97265625 C2.89406917 44.66998221 0.32463319 46.67166778 -5.38671875 49.52734375 C-5.71671875 57.11734375 -6.04671875 64.70734375 -6.38671875 72.52734375 C-3.70861084 72.51687012 -1.03050293 72.50639648 1.72875977 72.49560547 C10.62944973 72.46229739 19.53014262 72.44030729 28.43087864 72.42371941 C33.82138459 72.41333248 39.21182606 72.39926751 44.60229492 72.37646484 C49.81538962 72.35455335 55.02842275 72.34273696 60.24155998 72.33758926 C62.21921697 72.33392608 64.19687102 72.32677402 66.17450142 72.31588364 C80.8417238 72.23840995 95.13663519 72.51297701 109.17578125 77.27734375 C109.97459717 77.54047363 110.77341309 77.80360352 111.59643555 78.07470703 C134.1735481 85.66445014 152.34502799 97.27306265 169.61328125 113.52734375 C170.51433594 114.34912109 170.51433594 114.34912109 171.43359375 115.1875 C185.59851084 128.59475874 195.64786261 146.49537213 202.61328125 164.52734375 C202.85425537 165.12683838 203.09522949 165.72633301 203.34350586 166.34399414 C209.44735528 181.89404436 211.10375243 197.96470956 211.11328125 214.52734375 C211.11961075 215.61784531 211.11961075 215.61784531 211.12606812 216.7303772 C211.2137111 251.02590019 198.06934466 283.79118119 175.61328125 309.52734375 C175.00742187 310.254375 174.4015625 310.98140625 173.77734375 311.73046875 C169.76033332 316.49271641 165.4342005 320.58810269 160.61328125 324.52734375 C159.24429688 325.67009766 159.24429688 325.67009766 157.84765625 326.8359375 C136.25027328 344.22779992 108.5117645 356.83679065 80.45605469 356.60571289 C78.61171526 356.59960108 76.76737521 356.59367388 74.92303467 356.58790588 C73.95386864 356.58323366 72.98470261 356.57856144 71.98616791 356.57374763 C66.81628381 356.55445155 61.64645761 356.56979151 56.4765625 356.58007812 C49.91495063 356.59231247 43.35399114 356.59401224 36.79248047 356.55151367 C31.47365466 356.51798269 26.15611111 356.52364798 20.8372879 356.55508232 C18.8200346 356.55998491 16.80269285 356.55083084 14.78557587 356.52687263 C2.65315713 356.39122745 -5.21807543 356.72744194 -14.38671875 365.52734375 C-15.53903377 366.37101446 -16.7092019 367.1914947 -17.90429688 367.97338867 C-19.46903172 369.0296861 -21.03367953 370.08611379 -22.597229 371.14416504 C-24.35924757 372.33609522 -26.12296709 373.52548004 -27.88671875 374.71484375 C-30.38204059 376.40156026 -32.87653158 378.08950401 -35.37109375 379.77734375 C-35.98124329 380.18989914 -36.59139282 380.60245453 -37.22003174 381.0275116 C-41.461808 383.89683647 -45.69106979 386.78377493 -49.91040039 389.68603516 C-52.13070983 391.21071743 -54.35797498 392.7248108 -56.5859375 394.23828125 C-60.26546656 396.74245957 -63.89996967 399.30532921 -67.53125 401.87890625 C-69.67013769 403.36651138 -71.80945609 404.85349745 -73.94921875 406.33984375 C-74.93696289 407.05293701 -75.92470703 407.76603027 -76.94238281 408.50073242 C-82.48342238 412.30961114 -86.46679251 414.33572385 -93.265625 413.98754883 C-98.01080091 412.95800732 -100.41639825 410.01319662 -103.02856445 406.01318359 C-104.89380532 401.22585498 -104.76051162 396.96948512 -104.6796875 391.87890625 C-104.67544266 390.86637787 -104.67119781 389.85384949 -104.66682434 388.81063843 C-104.65009177 385.59093127 -104.61244901 382.37186031 -104.57421875 379.15234375 C-104.55916493 376.96355073 -104.54547775 374.77474786 -104.53320312 372.5859375 C-104.50020607 367.23285749 -104.45006071 361.88014609 -104.38671875 356.52734375 C-105.66256836 356.54112061 -106.93841797 356.55489746 -108.25292969 356.5690918 C-109.95898229 356.58023863 -111.66503715 356.59104398 -113.37109375 356.6015625 C-114.20817871 356.61151245 -115.04526367 356.6214624 -115.90771484 356.63171387 C-139.35102168 356.73972134 -163.40862095 346.97132761 -182.38671875 333.52734375 C-183.37542969 332.83511719 -184.36414063 332.14289063 -185.3828125 331.4296875 C-200.01794016 320.69964898 -212.39330246 307.65547459 -222.38671875 292.52734375 C-223.01707031 291.59277344 -223.64742187 290.65820312 -224.296875 289.6953125 C-243.18159732 259.6260166 -250.03764642 219.95856518 -242.35546875 185.2109375 C-242.03578125 183.99535156 -241.71609375 182.77976562 -241.38671875 181.52734375 C-241.22042969 180.85461426 -241.05414063 180.18188477 -240.8828125 179.48876953 C-234.90151652 155.51374148 -223.06739012 134.66537904 -206.38671875 116.52734375 C-205.93780273 116.02928223 -205.48888672 115.5312207 -205.02636719 115.01806641 C-184.43199092 92.37014083 -156.99342103 79.55376018 -127.38671875 73.52734375 C-126.07397476 73.25979027 -126.07397476 73.25979027 -124.73471069 72.98683167 C-120.49220183 72.40457771 -116.35333594 72.39588523 -112.07666016 72.41381836 C-111.15894836 72.41367233 -110.24123657 72.41352631 -109.29571533 72.41337585 C-106.2765462 72.41406991 -103.25743954 72.42183852 -100.23828125 72.4296875 C-98.13935378 72.43155348 -96.04042587 72.43297653 -93.9414978 72.43397522 C-88.42762033 72.43778621 -82.91376937 72.44760437 -77.39990234 72.4586792 C-71.76920938 72.46892383 -66.13851211 72.47347938 -60.5078125 72.47851562 C-49.46743442 72.48922793 -38.42708294 72.50681323 -27.38671875 72.52734375 C-27.38671875 64.93734375 -27.38671875 57.34734375 -27.38671875 49.52734375 C-29.03671875 48.86734375 -30.68671875 48.20734375 -32.38671875 47.52734375 C-39.01990788 42.65398031 -43.45038267 36.60701949 -45.38671875 28.52734375 C-46.44595321 19.90032571 -44.82591834 13.45448721 -39.87890625 6.3671875 C-29.13238667 -7.00348221 -14.19632359 -8.7594337 0 0 Z " fill="#FEFEFE" transform="translate(430.38671875,87.47265625)"/>
<path d="M0 0 C5.87892967 4.11039215 9.61066805 8.57140708 11.61328125 15.52734375 C12.7093693 24.28540652 12.10651562 32.70004858 6.84375 39.97265625 C2.89406917 44.66998221 0.32463319 46.67166778 -5.38671875 49.52734375 C-5.71671875 57.11734375 -6.04671875 64.70734375 -6.38671875 72.52734375 C-3.70861084 72.51687012 -1.03050293 72.50639648 1.72875977 72.49560547 C10.62944973 72.46229739 19.53014262 72.44030729 28.43087864 72.42371941 C33.82138459 72.41333248 39.21182606 72.39926751 44.60229492 72.37646484 C49.81538962 72.35455335 55.02842275 72.34273696 60.24155998 72.33758926 C62.21921697 72.33392608 64.19687102 72.32677402 66.17450142 72.31588364 C80.8417238 72.23840995 95.13663519 72.51297701 109.17578125 77.27734375 C109.97459717 77.54047363 110.77341309 77.80360352 111.59643555 78.07470703 C134.1735481 85.66445014 152.34502799 97.27306265 169.61328125 113.52734375 C170.51433594 114.34912109 170.51433594 114.34912109 171.43359375 115.1875 C185.59851084 128.59475874 195.64786261 146.49537213 202.61328125 164.52734375 C202.85425537 165.12683838 203.09522949 165.72633301 203.34350586 166.34399414 C209.44735528 181.89404436 211.10375243 197.96470956 211.11328125 214.52734375 C211.11961075 215.61784531 211.11961075 215.61784531 211.12606812 216.7303772 C211.2137111 251.02590019 198.06934466 283.79118119 175.61328125 309.52734375 C175.00742187 310.254375 174.4015625 310.98140625 173.77734375 311.73046875 C169.76033332 316.49271641 165.4342005 320.58810269 160.61328125 324.52734375 C159.24429688 325.67009766 159.24429688 325.67009766 157.84765625 326.8359375 C136.25027328 344.22779992 108.5117645 356.83679065 80.45605469 356.60571289 C78.61171526 356.59960108 76.76737521 356.59367388 74.92303467 356.58790588 C73.95386864 356.58323366 72.98470261 356.57856144 71.98616791 356.57374763 C66.81628381 356.55445155 61.64645761 356.56979151 56.4765625 356.58007812 C49.91495063 356.59231247 43.35399114 356.59401224 36.79248047 356.55151367 C31.47365466 356.51798269 26.15611111 356.52364798 20.8372879 356.55508232 C18.8200346 356.55998491 16.80269285 356.55083084 14.78557587 356.52687263 C2.65315713 356.39122745 -5.21807543 356.72744194 -14.38671875 365.52734375 C-15.53903377 366.37101446 -16.7092019 367.1914947 -17.90429688 367.97338867 C-19.46903172 369.0296861 -21.03367953 370.08611379 -22.597229 371.14416504 C-24.35924757 372.33609522 -26.12296709 373.52548004 -27.88671875 374.71484375 C-30.38204059 376.40156026 -32.87653158 378.08950401 -35.37109375 379.77734375 C-35.98124329 380.18989914 -36.59139282 380.60245453 -37.22003174 381.0275116 C-41.461808 383.89683647 -45.69106979 386.78377493 -49.91040039 389.68603516 C-52.13070983 391.21071743 -54.35797498 392.7248108 -56.5859375 394.23828125 C-60.26546656 396.74245957 -63.89996967 399.30532921 -67.53125 401.87890625 C-69.67013769 403.36651138 -71.80945609 404.85349745 -73.94921875 406.33984375 C-74.93696289 407.05293701 -75.92470703 407.76603027 -76.94238281 408.50073242 C-82.48342238 412.30961114 -86.46679251 414.33572385 -93.265625 413.98754883 C-98.01080091 412.95800732 -100.41639825 410.01319662 -103.02856445 406.01318359 C-104.89380532 401.22585498 -104.76051162 396.96948512 -104.6796875 391.87890625 C-104.67544266 390.86637787 -104.67119781 389.85384949 -104.66682434 388.81063843 C-104.65009177 385.59093127 -104.61244901 382.37186031 -104.57421875 379.15234375 C-104.55916493 376.96355073 -104.54547775 374.77474786 -104.53320312 372.5859375 C-104.50020607 367.23285749 -104.45006071 361.88014609 -104.38671875 356.52734375 C-105.66256836 356.54112061 -106.93841797 356.55489746 -108.25292969 356.5690918 C-109.95898229 356.58023863 -111.66503715 356.59104398 -113.37109375 356.6015625 C-114.20817871 356.61151245 -115.04526367 356.6214624 -115.90771484 356.63171387 C-139.35102168 356.73972134 -163.40862095 346.97132761 -182.38671875 333.52734375 C-183.37542969 332.83511719 -184.36414063 332.14289063 -185.3828125 331.4296875 C-200.01794016 320.69964898 -212.39330246 307.65547459 -222.38671875 292.52734375 C-223.01707031 291.59277344 -223.64742187 290.65820312 -224.296875 289.6953125 C-243.18159732 259.6260166 -250.03764642 219.95856518 -242.35546875 185.2109375 C-242.03578125 183.99535156 -241.71609375 182.77976562 -241.38671875 181.52734375 C-241.22042969 180.85461426 -241.05414063 180.18188477 -240.8828125 179.48876953 C-234.90151652 155.51374148 -223.06739012 134.66537904 -206.38671875 116.52734375 C-205.93780273 116.02928223 -205.48888672 115.5312207 -205.02636719 115.01806641 C-184.43199092 92.37014083 -156.99342103 79.55376018 -127.38671875 73.52734375 C-126.07397476 73.25979027 -126.07397476 73.25979027 -124.73471069 72.98683167 C-120.49220183 72.40457771 -116.35333594 72.39588523 -112.07666016 72.41381836 C-111.15894836 72.41367233 -110.24123657 72.41352631 -109.29571533 72.41337585 C-106.2765462 72.41406991 -103.25743954 72.42183852 -100.23828125 72.4296875 C-98.13935378 72.43155348 -96.04042587 72.43297653 -93.9414978 72.43397522 C-88.42762033 72.43778621 -82.91376937 72.44760437 -77.39990234 72.4586792 C-71.76920938 72.46892383 -66.13851211 72.47347938 -60.5078125 72.47851562 C-49.46743442 72.48922793 -38.42708294 72.50681323 -27.38671875 72.52734375 C-27.38671875 64.93734375 -27.38671875 57.34734375 -27.38671875 49.52734375 C-29.03671875 48.86734375 -30.68671875 48.20734375 -32.38671875 47.52734375 C-39.01990788 42.65398031 -43.45038267 36.60701949 -45.38671875 28.52734375 C-46.44595321 19.90032571 -44.82591834 13.45448721 -39.87890625 6.3671875 C-29.13238667 -7.00348221 -14.19632359 -8.7594337 0 0 Z M-189.38671875 139.52734375 C-192.57295111 143.40930406 -195.53178075 147.39667558 -198.38671875 151.52734375 C-198.9178125 152.27886719 -199.44890625 153.03039062 -199.99609375 153.8046875 C-215.41191196 177.3842589 -219.82341697 207.51270776 -215.26171875 234.96484375 C-208.07085738 267.12210698 -191.23073484 294.40899311 -163.24316406 312.39550781 C-143.2985211 324.55534011 -123.19298062 328.98098355 -100.11450195 328.96313477 C-97.96387056 328.96671081 -95.81447248 328.99400784 -93.6640625 329.0234375 C-92.40843506 329.02529053 -91.15280762 329.02714355 -89.85913086 329.02905273 C-84.4085998 329.81120375 -81.54402447 332.15265027 -78.04980469 336.30322266 C-76.06797822 340.14526616 -75.8463051 342.80319664 -75.77734375 347.11328125 C-75.7608075 347.815065 -75.74427124 348.51684875 -75.72723389 349.23989868 C-75.67901185 351.46080497 -75.65744268 353.68102803 -75.63671875 355.90234375 C-75.60853714 357.41670057 -75.57860665 358.93102591 -75.546875 360.4453125 C-75.47326307 364.13917561 -75.42352981 367.83290956 -75.38671875 371.52734375 C-70.22665681 369.82630978 -65.9817493 366.82310465 -61.52734375 363.79296875 C-60.25458588 362.93182465 -60.25458588 362.93182465 -58.95611572 362.05328369 C-54.18997913 358.74238762 -49.93297421 355.30760792 -45.87237549 351.16539001 C-26.03953659 331.02237141 -6.00278536 327.86826177 21.16635513 327.51619911 C30.81324734 327.45302713 40.4549751 327.62479563 50.09863281 327.86035156 C51.64436729 327.89715924 51.64436729 327.89715924 53.22132874 327.9347105 C58.11254984 328.05782045 62.99796363 328.21420925 67.88537598 328.44392395 C84.59838678 329.12913844 100.46275798 326.97162103 115.61328125 319.52734375 C117.04800781 318.88345703 117.04800781 318.88345703 118.51171875 318.2265625 C142.15208775 307.21300477 159.65608324 288.37651055 171.61328125 265.52734375 C171.94908203 264.90682129 172.28488281 264.28629883 172.63085938 263.64697266 C175.1902741 258.78144364 176.84475111 253.96059343 178.23828125 248.65234375 C178.44195313 247.91371094 178.645625 247.17507813 178.85546875 246.4140625 C179.47421633 244.12548972 180.05137108 241.83049962 180.61328125 239.52734375 C180.80599609 238.76502441 180.99871094 238.00270508 181.19726562 237.21728516 C182.84536037 230.03106419 182.91074115 223.00071799 182.86328125 215.65234375 C182.87101562 214.46253906 182.87875 213.27273438 182.88671875 212.046875 C182.8229489 182.87216747 171.21659671 155.13065921 150.61328125 134.52734375 C149.70964844 133.62371094 148.80601562 132.72007812 147.875 131.7890625 C132.82184494 117.17864729 114.07169861 107.01442335 93.61328125 102.52734375 C92.94697079 102.36056446 92.28066033 102.19378518 91.59415865 102.02195197 C86.33393496 100.74334527 81.45456639 100.2390726 76.0526123 100.26664734 C75.24020663 100.26282179 74.42780095 100.25899624 73.59077692 100.25505477 C70.89443466 100.24481499 68.19830896 100.2486997 65.50195312 100.25268555 C63.55778814 100.24833387 61.61362486 100.2431492 59.66946411 100.23719788 C54.40454129 100.2238404 49.13969041 100.22322598 43.87475395 100.22576118 C39.46692663 100.22683387 35.05911369 100.22193948 30.65128946 100.21715575 C20.24049707 100.20607011 9.82974075 100.20561676 -0.58105469 100.21166992 C-11.28561728 100.21769881 -21.99004807 100.20542411 -32.69458818 100.18409985 C-41.91195269 100.16641996 -51.12927551 100.16049284 -60.34665632 100.1637376 C-65.83954419 100.16554168 -71.3323382 100.16300304 -76.82521057 100.14902306 C-81.99962236 100.13634634 -87.17383083 100.13848087 -92.3482399 100.15143394 C-94.23424985 100.15377865 -96.12027454 100.15114187 -98.00626755 100.14281082 C-134.17548831 99.99472037 -165.0340585 112.39366983 -189.38671875 139.52734375 Z " fill="#030303" transform="translate(430.38671875,87.47265625)"/>
<path d="M0 0 C6.74430698 4.17867607 10.52645653 10.57936958 13 18 C13.95201116 26.50567346 12.24558488 33.62286465 7.12890625 40.5234375 C1.25448501 47.38618292 -3.39462927 50.47907171 -12.4765625 51.1953125 C-20.45225552 51.53231361 -27.12984603 50.35018431 -33.296875 45.01171875 C-40.82870212 37.05382112 -42.6781169 30.31108357 -42.41015625 19.40625 C-41.5157402 11.9783377 -37.32612097 6.50873546 -31.94140625 1.5078125 C-21.9047622 -6.28724706 -11.00850728 -5.42815797 0 0 Z " fill="#030303" transform="translate(524,276)"/>
<path d="M0 0 C6.64776789 4.76291689 11.05675387 9.92805454 13 18 C14.01186889 27.71092082 11.90268987 34.62632605 5.875 42.25 C1.02823515 47.3842848 -4.1825685 50.52282106 -11.25 51.40625 C-19.80402801 51.64386189 -26.97186167 50.53400178 -33.55078125 44.5859375 C-40.47196108 37.01181618 -42.46883668 30.26494462 -42.33203125 20.12890625 C-41.43571149 11.6824106 -36.73997543 5.87269033 -30.3203125 0.62890625 C-20.80293513 -6.05248493 -10.00394031 -5.58131743 0 0 Z " fill="#030303" transform="translate(333,276)"/>
<path d="M0 0 C18.81 0 37.62 0 57 0 C56.0715851 8.35573413 55.25008923 11.48489315 51 18 C50.443125 18.9075 49.88625 19.815 49.3125 20.75 C43.74032711 26.17157362 36.08647454 29.07387131 28.375 29.3125 C20.53113346 29.18561392 14.37469555 26.64693976 8.625 21.3125 C2.53986354 14.68646252 1.11347071 8.90776569 0 0 Z " fill="#080808" transform="translate(385,313)"/>
</svg>
